<?xml version="1.0" encoding="utf-8"?>
<svg xmlns="http://www.w3.org/2000/svg" viewBox="0 0 500 500" width="223px" height="220.021px" preserveAspectRatio="none" xmlns:bx="https://boxy-svg.com"><defs/><g id="object-0" transform="matrix(1.175088, 0, 0, 1.175088, -80.140399, -75.449174)" style=""><path style="fill: rgb(232, 236, 255); stroke: rgb(78, 109, 196); stroke-linejoin: round; fill-rule: evenodd; paint-order: fill; stroke-width: 30px;" d="M 320.64 153.328 L 367.503 180.162 L 425.095 146.261 C 443.411 166.459 457.286 190.291 465.791 216.185 L 407.876 249.517 L 408.058 303.516 L 466.213 336.445 C 457.866 362.398 444.176 386.321 425.999 406.655 L 368.174 373.155 L 321.508 400.319 L 322.068 467.14 C 295.406 472.905 267.852 472.997 241.146 467.413 L 241.26 400.592 L 194.386 373.761 L 136.804 407.662 C 118.489 387.461 104.614 363.632 96.108 337.735 L 154.022 304.404 L 153.839 250.407 L 95.687 217.475 C 104.022 191.522 117.724 167.599 135.902 147.263 L 193.725 180.768 L 240.391 153.602 L 239.821 86.782 C 266.472 81.016 294.047 80.913 320.73 86.486 L 320.64 153.328 Z M 280.95 276.955 C 280.95 276.955 280.95 276.955 280.95 276.955 C 280.95 276.955 280.95 276.955 280.95 276.955"/><circle style="stroke: rgb(78, 109, 196); stroke-opacity: 0.62; fill: none; paint-order: fill; stroke-width: 29.785px;" cx="280.949" cy="276.957" r="73.614"/></g></svg>