<?xml version="1.0" encoding="utf-8"?>
<svg xmlns="http://www.w3.org/2000/svg" viewBox="4.2075 4.2104 15.268 19.002" width="513.709px" height="519.534px" xmlns:bx="https://boxy-svg.com">
  <g>
    <g transform="matrix(-0.814136, 0, 0, -0.814136, 1.154008, -3.110044)" style="transform-origin: 9.68237px 16.7303px;">
      <title>BAg</title>
      <path d="M 4.887 10.206 C 4.747 9.974 4.747 9.748 4.887 9.516 L 5.844 8.467 C 6.211 8.162 6.337 8.191 6.614 8.191 L 12.748 8.191 C 13.025 8.191 13.375 8.536 13.375 8.536 L 16.438 13.583 C 16.579 13.815 16.579 14.041 16.438 14.273 L 12.063 20.323 C 11.924 20.552 11.712 20.667 11.434 20.667 L 8.207 20.667 C 7.928 20.667 7.718 20.552 7.579 20.323 L 3.611 15.784" style="stroke-linejoin: round; vector-effect: non-scaling-stroke; fill: none; stroke: rgb(68, 68, 68); stroke-width: 4px;"/>
    </g>
    <g transform="matrix(0.881526, 0, 0, 0.881526, 18.287521, 21.202639)" style="">
      <path fill-rule="evenodd" fill-opacity="1" d="M -2.873 -0.647 L 0.901 -5.914 L -0.89 -7.825 L -4.856 -7.825 L -6.647 -5.914 L -2.873 -0.647 Z M -2.873 -1.173 L 0.505 -5.888 L -1.023 -7.518 L -4.723 -7.518 L -6.251 -5.888 L -2.873 -1.173" style="stroke-width: 0.037;" fill="rgb(10.205078%, 10.205078%, 10.205078%)"/>
    </g>
    <path d="M 10.395 7.488 Q 10.708 7.29 11.021 7.488 L 12.234 8.258 Q 12.546 8.456 12.427 8.776 L 11.964 10.021 Q 11.844 10.342 11.458 10.342 L 9.958 10.342 Q 9.572 10.342 9.452 10.021 L 8.989 8.776 Q 8.87 8.456 9.182 8.258 Z" bx:shape="n-gon 10.708 8.977 1.933 1.687 5 0.17 1@1fc19f08" style="fill: none; stroke: rgb(68, 68, 68); stroke-linejoin: round; stroke-width: 4px; vector-effect: non-scaling-stroke;"/>
  </g>
</svg>