<?xml version="1.0" encoding="utf-8"?>
<svg xmlns="http://www.w3.org/2000/svg" viewBox="1.433 0.133 21.1739 23.814" width="329.431px" height="484.48px" preserveAspectRatio="none"><g id="object-0"><title>Flame</title><path d="M 12.021 14.555 L 9.203 17.318 C 8.455 18.058 8.046 19.026 8.046 20.058 C 8.046 22.199 9.833 23.947 12.021 23.947 C 14.202 23.947 15.989 22.199 15.989 20.058 C 15.989 19.026 15.58 18.042 14.84 17.318 L 12.021 14.555 Z" style="fill: rgb(163, 163, 163); stroke-width: 7.872;"><title>FlameDark</title></path><path d="M 17.312 5.423 L 16.729 6.147 C 15.17 8.092 12.021 6.998 12.021 4.494 L 12.021 0.133 C 12.021 0.133 1.433 5.423 1.433 14.681 C 1.433 18.546 3.496 21.923 6.582 23.758 C 5.842 22.719 5.401 21.435 5.401 20.058 C 5.401 18.31 6.094 16.673 7.345 15.429 L 12.021 10.847 L 16.69 15.437 C 17.949 16.673 18.634 18.31 18.634 20.073 C 18.634 21.42 18.225 22.663 17.508 23.71 C 20.012 22.183 21.862 19.656 22.421 16.696 C 23.295 11.997 21.004 7.564 17.312 5.423 Z" style="fill: rgb(225, 225, 225); stroke-width: 7.872;"><title>FlameLight</title></path></g></svg>