<?xml version="1.0" encoding="utf-8"?>
<svg xmlns="http://www.w3.org/2000/svg" viewBox="-30.8974 -35.9855 260.0284 222.4965" width="189.788px" height="195.512px" preserveAspectRatio="none"><defs><filter id="warp-filter-0" color-interpolation-filters="sRGB" x="-50%" y="-50%" width="200%" height="200%"><feComponentTransfer><feFuncR type="table" tableValues="1 0.5"/></feComponentTransfer><feMerge result="a"><feMergeNode/><feMergeNode in="SourceGraphic"/></feMerge><feTurbulence type="fractalNoise" baseFrequency="0.032" numOctaves="1" result="warp"/><feDisplacementMap xChannelSelector="R" yChannelSelector="G" scale="13" in="a" in2="warp"/></filter></defs><g id="object-3" transform="matrix(1, 0, 0, 1, 7.105427357601002e-15, 5.684341886080802e-14)"><g stroke="#9b3750" stroke-width="3" stroke-linejoin="round" style="" transform="matrix(0.000002, 2.852517, -2.889202, 0.000002, 388.036774, -209.989181)" id="object-1"><polygon points="100,55 139,77.5 139,122.5 100,145 61,122.5 61,77.5" style="stroke-width: 0.0469159px; stroke: rgba(154, 107, 107, 0.573); fill: rgb(150, 150, 150);"/><polygon points="100,75 &#10;              121,87.5 &#10;              121,112.5 &#10;              100,125 &#10;              79,112.5 &#10;              79,87.5" style="stroke-width: 0.0469159px; stroke: rgba(154, 107, 107, 0.573); fill: rgb(210, 210, 210);" id="object-0"/><g><title>Light Facet</title><polygon points="121,87.5 121,112.5 139,122.5 139,77.5" style="stroke-width: 0.0469159px; stroke: rgba(154, 107, 107, 0.573); fill: rgb(198, 198, 198);"/><polygon points="100,125 79,112.5 61,122.5 100,145" style="stroke-width: 0.0469159px; stroke: rgba(154, 107, 107, 0.573); fill: rgb(198, 198, 198);"/><polygon points="79,87.5 100,75 100,55 61,77.5" style="stroke-width: 0.0469159px; stroke: rgba(154, 107, 107, 0.573); fill: rgb(198, 198, 198);"/></g><g><title>Dark Facet</title><polygon points="100,75 121,87.5 139,77.5 100,55" style="stroke-width: 0.0469159px; stroke: rgba(154, 107, 107, 0.573); fill: rgb(166, 166, 166);"/><polygon points="121,112.5 100,125 100,145 139,122.5" style="stroke-width: 0.0469159px; stroke: rgba(154, 107, 107, 0.573); fill: rgb(166, 166, 166);"/><polygon points="79,112.5 79,87.5 61,77.5 61,122.5" style="stroke-width: 0.0469159px; stroke: rgba(154, 107, 107, 0.573); fill: rgb(166, 166, 166);"/></g><polygon points="100,55 139,77.5 139,122.5 100,145 61,122.5 61,77.5" style="visibility: hidden; stroke-width: 0.0469159px; stroke: rgba(154, 107, 107, 0.573);" fill="none"/><polygon points="100,75 121,87.5 121,112.5 100,125 79,112.5 79,87.5" style="visibility: hidden; stroke-width: 0.0469159px; stroke: rgba(154, 107, 107, 0.573);" fill="none"/></g><g fill="#ffffff" opacity="0.22" transform="matrix(2.751063, 0, 0, 2.716131, -191.324341, -166.793411)" style="" id="object-2"><polygon points="119.823 48.443 133.823 57.443 129.823 64.443 115.823 54.443" style="filter: url(&quot;#warp-filter-0&quot;);"/><ellipse cx="115.798" cy="73.48" rx="6.8" ry="3.4" transform="matrix(0.960642, 0.277789, -0.277789, 0.960642, 24.969476, -29.275377)" style=""/></g></g></svg>