<?xml version="1.0" encoding="utf-8"?>
<svg xmlns="http://www.w3.org/2000/svg" viewBox="4.2075 4.2104 15.268 19.002" width="513.709px" height="519.534px" xmlns:bx="https://boxy-svg.com">
  <g transform="matrix(0.814136, 0, 0, 0.814136, 3.95873, 0.0907)" style="">
    <path d="M 9.809 21.391 L 11.942 21.138 C 12.032 21.19 12.048 21.606 12.048 21.714 L 12.074 23.814 C 12.074 23.921 12.028 24 11.938 24.053 L 9.932 25.229 C 9.843 25.283 9.75 25.283 9.658 25.229 L 7.653 24.053 C 7.564 24 7.517 23.921 7.517 23.814 L 7.517 21.462 C 7.517 21.356 7.564 21.274 7.653 21.222 L 9.809 21.391 Z" style="stroke-linejoin: round; stroke: rgb(68, 68, 68); fill: none; vector-effect: non-scaling-stroke; stroke-width: 4px;"/>
    <path d="M 16.438 13.583 C 16.579 13.815 16.579 14.041 16.438 14.273 L 12.063 20.323 C 11.924 20.552 11.712 20.667 11.434 20.667 L 8.207 20.667 C 7.928 20.667 7.718 20.552 7.579 20.323 L 2.926 14.273 C 2.786 14.041 2.786 13.815 2.926 13.583 L 5.987 8.536 C 6.128 8.304 6.337 8.191 6.614 8.191 L 12.748 8.191 C 13.025 8.191 13.375 8.536 13.375 8.536 L 16.438 13.583 Z" style="stroke-linejoin: round; vector-effect: non-scaling-stroke; fill: none; stroke: rgb(68, 68, 68); stroke-width: 4px;"/>
    <path d="M 9.792 11.143 Q 9.819 11.106 9.846 11.143 L 12.447 14.75 Q 12.474 14.787 12.447 14.824 L 9.846 18.431 Q 9.819 18.468 9.792 18.431 L 7.191 14.824 Q 7.164 14.787 7.191 14.75 Z" bx:shape="n-gon 9.819 14.787 2.655 3.681 4 0.01 1@f66bd23e" style="fill: none; stroke: rgb(68, 68, 68); stroke-linejoin: round; stroke-width: 4px; vector-effect: non-scaling-stroke;"/>
  </g>
  <line style="fill: none; stroke: rgb(68, 68, 68); stroke-linejoin: round; stroke-width: 4px; vector-effect: non-scaling-stroke;" x1="7.237" y1="7.319" x2="6.092" y2="6.271"/>
  <line style="fill: none; stroke: rgb(68, 68, 68); stroke-linejoin: round; stroke-width: 4px; vector-effect: non-scaling-stroke;" x1="11.87" y1="6.234" x2="11.88" y2="4.931"/>
  <line style="fill: none; stroke: rgb(68, 68, 68); stroke-linejoin: round; stroke-width: 4px; vector-effect: non-scaling-stroke;" x1="16.457" y1="7.185" x2="17.493" y2="5.787"/>
  <line style="fill: none; stroke: rgb(68, 68, 68); stroke-linejoin: round; stroke-width: 4px; vector-effect: non-scaling-stroke;" x1="6.1" y1="10.02" x2="4.496" y2="9.236"/>
  <line style="fill: none; stroke: rgb(68, 68, 68); stroke-linejoin: round; stroke-width: 4px; vector-effect: non-scaling-stroke;" x1="17.459" y1="10.29" x2="19.125" y2="9.496"/>
</svg>